<?xml version="1.0" standalone="no"?>
<!DOCTYPE svg PUBLIC "-//W3C//DTD SVG 20010904//EN"
 "http://www.w3.org/TR/2001/REC-SVG-20010904/DTD/svg10.dtd">
<svg version="1.0" xmlns="http://www.w3.org/2000/svg"
 width="16.000000pt" height="16.000000pt" viewBox="0 0 16.000000 16.000000"
 preserveAspectRatio="xMidYMid meet">
<metadata>
Created by potrace 1.11, written by Peter Selinger 2001-2013
</metadata>
<g transform="translate(0.000000,16.000000) scale(0.001563,-0.001563)"
fill="#000000" stroke="none">
<path d="M9361 7891 c-8 -5 -21 -7 -29 -3 -11 4 -13 1 -7 -8 5 -9 4 -11 -3 -6
-22 13 -52 15 -52 3 0 -9 -2 -9 -8 0 -8 13 -29 12 -51 -1 -8 -5 -16 -4 -20 1
-7 11 -56 11 -67 0 -4 -3 -12 -3 -18 0 -17 11 -36 12 -36 2 0 -4 -6 -6 -13 -3
-7 2 -19 -7 -27 -21 -7 -14 -17 -25 -22 -25 -4 0 -8 -6 -8 -14 0 -8 -7 -17
-16 -20 -9 -4 -14 -9 -11 -13 4 -3 -5 -16 -18 -29 -14 -13 -25 -26 -25 -29 0
-7 -14 -24 -48 -60 -13 -14 -20 -25 -16 -25 4 0 -5 -11 -19 -24 -14 -13 -23
-27 -20 -30 4 -3 0 -6 -7 -6 -7 0 -11 -3 -8 -6 3 -3 -10 -21 -28 -40 -19 -19
-32 -39 -29 -44 3 -6 -1 -10 -9 -10 -9 0 -16 -7 -16 -15 0 -8 -4 -15 -10 -15
-5 0 -16 -12 -24 -27 -8 -16 -28 -42 -44 -60 -16 -17 -27 -34 -24 -37 2 -3 -3
-8 -12 -12 -9 -3 -14 -10 -11 -14 3 -4 -2 -10 -10 -14 -8 -3 -15 -12 -15 -21
0 -8 -4 -15 -10 -15 -5 0 -10 -7 -10 -15 0 -8 -6 -14 -12 -12 -7 1 -20 -13
-28 -30 -8 -18 -21 -33 -28 -33 -7 0 -10 -4 -7 -10 3 -5 2 -10 -4 -10 -5 0
-13 -9 -16 -20 -3 -11 -14 -20 -23 -21 -11 0 -12 -2 -4 -6 8 -3 5 -11 -10 -24
-13 -10 -20 -18 -16 -19 3 0 -7 -14 -23 -31 -16 -17 -29 -37 -29 -45 0 -8 -6
-11 -17 -7 -11 4 -14 3 -9 -5 4 -7 -5 -25 -22 -42 -16 -16 -27 -31 -24 -34 3
-3 -3 -8 -12 -12 -9 -3 -14 -10 -11 -14 3 -4 -2 -11 -10 -14 -9 -3 -20 -17
-25 -31 -6 -16 -14 -23 -22 -19 -6 4 -8 3 -5 -3 4 -6 -4 -22 -18 -37 -13 -14
-21 -26 -18 -26 3 0 -4 -9 -17 -20 -13 -11 -19 -20 -14 -20 5 0 1 -5 -8 -11
-10 -5 -18 -17 -18 -24 0 -8 -4 -15 -9 -15 -6 0 -18 -13 -28 -30 -9 -16 -24
-30 -33 -31 -9 0 -10 -2 -3 -5 8 -4 7 -11 -5 -23 -9 -10 -21 -16 -26 -13 -5 3
-6 0 -2 -7 5 -7 -1 -20 -13 -30 -12 -10 -21 -22 -21 -27 0 -5 -9 -16 -20 -24
-11 -8 -20 -20 -20 -27 0 -7 -4 -13 -10 -13 -5 0 -10 -7 -10 -15 0 -8 -7 -15
-16 -15 -8 0 -12 -4 -9 -10 3 -5 1 -10 -4 -10 -6 0 -11 -6 -11 -14 0 -8 -12
-24 -27 -36 -16 -12 -26 -24 -25 -27 2 -2 -7 -17 -20 -31 -13 -15 -37 -46 -54
-69 -17 -24 -34 -40 -38 -36 -4 4 -4 0 0 -10 4 -12 1 -17 -11 -17 -9 0 -13 -4
-10 -10 3 -5 1 -10 -5 -10 -6 0 -8 -4 -5 -10 3 -5 -1 -10 -10 -10 -9 0 -13 -5
-10 -10 3 -6 -1 -13 -9 -16 -9 -3 -16 -11 -16 -18 0 -6 -9 -19 -20 -29 -12
-10 -18 -22 -15 -28 4 -5 3 -8 -2 -7 -4 2 -9 -1 -10 -5 -1 -5 -13 -18 -27 -31
-14 -12 -26 -25 -26 -29 0 -4 -8 -15 -17 -25 -10 -10 -25 -29 -33 -42 -8 -12
-21 -29 -28 -36 -7 -8 -11 -14 -8 -14 3 0 -2 -8 -11 -18 -37 -38 -63 -72 -63
-82 0 -6 -5 -10 -11 -10 -5 0 -7 -4 -4 -10 3 -5 -1 -10 -9 -10 -9 0 -16 -5
-16 -10 0 -11 -10 -25 -47 -65 -13 -13 -23 -29 -23 -35 0 -5 -4 -10 -10 -10
-5 0 -10 -7 -10 -16 0 -8 -4 -12 -10 -9 -5 3 -10 -3 -10 -15 0 -12 -4 -18 -10
-15 -5 3 -10 2 -10 -3 0 -4 -9 -18 -20 -30 -12 -12 -18 -22 -14 -22 4 0 -1 -9
-12 -19 -10 -11 -28 -31 -39 -45 -11 -15 -26 -33 -33 -41 -7 -8 -11 -15 -7
-15 3 0 -6 -11 -21 -25 -15 -14 -24 -25 -20 -25 3 0 -2 -8 -11 -18 -10 -10
-27 -30 -38 -46 -11 -15 -28 -37 -37 -48 -12 -14 -15 -25 -8 -33 5 -6 7 -15 3
-18 -3 -4 1 -7 11 -7 10 0 14 -5 11 -11 -4 -5 0 -18 10 -29 9 -10 17 -27 18
-39 1 -11 4 -21 8 -21 8 0 24 -40 21 -52 -1 -5 3 -8 10 -8 6 0 9 -3 5 -6 -3
-3 3 -15 13 -26 10 -11 16 -27 13 -36 -5 -11 -3 -13 7 -7 9 6 11 4 5 -5 -4 -7
-3 -15 3 -19 6 -3 12 -13 14 -21 2 -8 9 -21 16 -28 7 -8 10 -18 7 -23 -4 -5
-2 -9 3 -9 5 0 13 -10 17 -22 4 -13 8 -26 10 -30 6 -20 7 -24 6 -31 -1 -5 2
-6 7 -3 4 2 13 -4 20 -15 9 -15 9 -19 0 -19 -6 0 -3 -7 8 -16 10 -8 12 -13 4
-9 -10 4 -9 2 3 -8 9 -8 17 -22 17 -31 0 -9 5 -16 10 -16 6 0 10 -6 10 -14 0
-22 26 -66 35 -58 5 4 5 1 0 -6 -4 -9 1 -26 15 -44 13 -17 16 -27 9 -23 -11 7
-12 6 -2 -7 7 -8 9 -19 5 -23 -4 -5 -2 -6 3 -2 6 3 17 -3 24 -15 7 -11 8 -17
2 -13 -8 4 -7 -2 0 -19 10 -21 15 -23 31 -15 10 5 16 14 13 19 -3 5 4 11 15
15 11 3 19 12 17 18 -1 7 4 11 11 9 8 -1 11 2 7 9 -4 6 1 19 11 28 11 10 26
28 34 41 16 23 19 27 60 75 14 15 18 25 10 20 -8 -4 -2 4 14 19 16 14 26 26
23 26 -8 0 18 33 47 61 11 11 16 19 11 19 -4 0 3 10 16 23 13 12 30 34 38 49
8 15 18 25 23 22 4 -3 8 2 8 10 0 8 17 32 38 52 20 21 31 34 24 30 -11 -7 -11
-4 -1 12 7 12 17 18 21 16 4 -3 8 2 8 10 0 9 5 16 10 16 6 0 10 7 10 16 0 9 5
12 12 8 8 -5 9 -2 5 10 -4 10 -3 15 3 11 5 -3 14 4 20 15 6 11 8 20 6 20 -3 0
10 16 29 35 19 19 35 38 35 43 0 5 14 23 30 41 17 17 28 31 25 31 -6 0 8 19
43 56 12 14 22 27 22 29 0 5 27 40 53 67 9 10 14 18 10 18 -3 0 4 8 15 19 12
10 19 21 15 25 -3 3 -1 6 6 6 7 0 9 5 5 12 -5 8 -2 9 10 5 10 -4 15 -3 11 3
-3 5 6 21 20 36 14 14 22 30 19 36 -4 6 -3 9 2 6 5 -3 15 0 22 8 7 8 9 14 5
14 -4 0 0 5 10 11 9 6 15 14 12 20 -4 5 -1 9 4 9 6 0 11 4 11 9 0 5 16 26 35
47 19 20 35 40 35 44 0 4 11 20 25 36 14 16 25 33 25 37 0 5 5 5 12 1 6 -4 8
-3 5 3 -4 6 5 23 18 37 14 15 22 32 19 38 -4 6 -2 8 3 5 6 -4 19 5 29 20 9 15
21 32 26 38 5 5 20 24 33 40 14 17 25 36 25 43 0 7 5 10 10 7 6 -3 10 -2 10 3
0 5 8 18 18 30 30 36 47 64 44 74 -1 5 2 7 8 3 5 -3 10 -2 10 3 0 4 9 18 21
30 11 12 17 27 13 34 -4 6 -3 8 4 4 5 -3 20 10 32 29 12 19 26 35 31 35 5 0 9
7 9 15 0 8 9 20 19 27 11 7 17 18 13 27 -4 10 -1 13 11 8 12 -4 17 -1 17 10 0
9 13 28 29 44 16 15 27 30 24 33 -3 2 9 18 26 35 18 17 29 31 25 31 -4 0 3 9
16 20 13 11 20 20 16 20 -4 0 2 10 14 22 11 12 20 26 20 30 0 5 5 6 12 2 6 -4
8 -3 5 3 -4 5 3 19 13 31 11 12 20 25 20 31 0 5 7 12 16 15 9 4 14 9 11 12 -2
3 6 17 19 31 13 14 24 32 24 40 0 8 4 12 8 9 5 -3 19 12 33 33 13 22 28 36 33
33 5 -3 6 0 2 6 -3 6 -2 13 4 17 6 4 8 11 4 16 -3 5 0 8 7 7 7 -2 18 8 26 22
7 14 18 24 24 22 6 -1 8 1 5 6 -3 5 5 20 17 33 12 13 22 27 22 31 0 4 9 14 20
22 11 9 16 16 10 16 -5 0 1 7 13 16 12 8 20 20 17 25 -4 5 -1 9 5 9 6 0 8 5 4
12 -4 7 -3 8 4 4 7 -4 17 3 23 18 7 14 16 23 21 20 5 -3 7 -2 6 3 -4 12 34 73
43 68 4 -3 12 9 19 25 7 17 16 30 21 30 4 0 11 9 14 20 3 11 14 20 23 20 15 0
15 2 2 10 -13 9 -8 14 11 12 4 -1 12 12 19 28 6 16 18 31 26 34 8 3 14 11 14
17 0 6 11 22 25 35 14 13 25 28 25 34 0 6 7 13 15 16 8 4 15 15 15 26 0 10 5
16 10 13 6 -3 10 -1 10 5 0 12 10 24 52 69 15 16 24 31 21 35 -4 3 -1 6 5 6 7
0 12 5 12 10 0 6 8 19 18 29 33 37 42 50 42 61 0 6 5 8 10 5 8 -5 15 10 8 18
-1 1 14 19 35 40 20 22 34 44 30 49 -3 6 -2 8 4 5 5 -3 16 3 24 14 8 12 22 30
31 41 10 11 15 25 12 29 -3 5 2 9 11 9 9 0 13 5 10 10 -3 6 -1 10 4 10 6 0 11
4 11 8 0 4 -27 8 -60 8 -36 0 -60 -4 -60 -10 0 -6 -4 -5 -9 2 -8 14 -46 13
-70 -2 -9 -6 -12 -5 -7 2 7 12 -51 11 -71 -1 -6 -4 -14 -3 -17 2 -7 10 -31 9
-42 -2 -4 -4 -16 1 -27 10 -11 10 -17 12 -13 6 4 -8 1 -13 -9 -13 -10 0 -13 5
-9 13 5 8 2 8 -9 -2 -9 -7 -17 -10 -17 -6 0 4 -6 2 -14 -4 -10 -9 -16 -9 -21
-1 -5 8 -11 7 -23 -2 -9 -8 -13 -8 -9 -1 9 14 -75 13 -85 -2 -5 -6 -8 -5 -8 2
0 13 -26 13 -46 0 -6 -3 -14 -3 -18 0 -11 11 -36 12 -36 2 0 -6 -5 -7 -10 -4
-6 4 -8 11 -5 16 8 11 4 11 -14 0z"/>
<path d="M5316 7874 c-3 -9 -4 -20 0 -25 3 -5 -2 -9 -11 -9 -9 0 -13 -5 -9
-11 3 -6 3 -14 -2 -18 -5 -3 -20 -31 -34 -61 -14 -30 -27 -57 -30 -60 -7 -7
-33 -63 -34 -73 -1 -4 -6 -11 -11 -15 -6 -4 -10 -14 -10 -22 0 -8 -2 -17 -5
-20 -16 -14 -40 -62 -35 -69 2 -5 -2 -11 -10 -15 -8 -3 -15 -15 -15 -26 0 -11
-4 -20 -9 -20 -8 0 -22 -32 -25 -55 -1 -5 -7 -15 -15 -21 -8 -6 -11 -16 -7
-22 4 -7 3 -12 -3 -12 -6 0 -13 -11 -17 -25 -3 -14 -10 -25 -15 -25 -5 0 -9
-9 -9 -19 0 -11 -6 -26 -12 -33 -7 -7 -14 -20 -16 -28 -2 -8 -8 -17 -13 -18
-5 -2 -7 -8 -3 -13 3 -5 0 -9 -5 -9 -6 0 -10 -3 -9 -7 1 -5 -3 -18 -10 -30 -7
-13 -9 -23 -5 -23 4 0 3 -4 -3 -8 -6 -4 -21 -27 -32 -52 -16 -34 -18 -47 -9
-55 7 -5 14 -19 15 -30 2 -11 7 -22 10 -25 12 -9 77 -153 74 -162 -1 -5 1 -7
6 -4 5 3 14 -11 21 -30 7 -18 17 -34 22 -34 5 0 8 -4 6 -8 -3 -10 46 -116 56
-120 4 -2 7 -12 7 -23 0 -10 5 -19 10 -19 6 0 10 -5 10 -11 0 -16 123 -262
135 -271 5 -4 7 -8 2 -8 -4 0 7 -25 24 -55 17 -30 28 -55 25 -55 -4 0 2 -10
14 -22 11 -12 20 -30 20 -40 0 -10 5 -18 10 -18 6 0 10 -9 10 -21 0 -11 5 -17
10 -14 8 5 13 -15 9 -41 0 -4 3 -10 8 -13 16 -11 46 -64 32 -56 -8 5 -7 0 3
-11 9 -10 18 -26 20 -34 2 -8 6 -17 9 -20 9 -9 78 -150 73 -150 -3 0 2 -7 10
-16 9 -8 14 -20 11 -25 -4 -5 -2 -9 4 -9 10 0 27 -38 23 -52 -1 -5 2 -8 7 -8
9 0 46 -79 43 -92 -1 -5 2 -8 7 -8 10 0 27 -39 23 -52 -1 -5 2 -8 7 -8 7 0 19
-28 19 -47 0 -3 4 -9 9 -12 11 -8 53 -93 53 -108 0 -7 5 -13 10 -13 6 0 10 -9
10 -20 0 -11 3 -20 8 -20 8 0 32 -49 32 -67 0 -7 4 -13 9 -13 7 0 22 -36 20
-49 0 -2 4 -7 10 -11 6 -3 14 -17 16 -31 3 -13 9 -25 15 -27 5 -2 10 -10 10
-19 0 -8 8 -27 19 -41 10 -15 24 -44 32 -64 7 -21 17 -38 21 -38 4 0 8 -9 8
-20 0 -11 5 -20 10 -20 6 0 10 -9 10 -20 0 -11 5 -20 10 -20 6 0 10 -8 10 -17
0 -10 7 -27 15 -37 8 -10 12 -22 10 -26 -3 -5 2 -11 11 -14 8 -3 12 -10 9 -16
-3 -5 -1 -10 4 -10 6 0 11 -8 11 -19 0 -10 7 -24 15 -31 8 -7 12 -16 9 -21 -3
-5 0 -9 6 -9 6 0 9 -4 5 -9 -3 -5 -1 -12 5 -16 6 -4 8 -10 5 -15 -3 -4 2 -11
11 -14 8 -3 12 -10 9 -16 -3 -5 -1 -10 5 -10 6 0 8 -4 5 -10 -3 -5 -1 -10 4
-10 6 0 10 -3 9 -7 -2 -12 13 -46 29 -65 8 -9 12 -21 9 -27 -3 -5 -2 -11 3
-13 4 -1 32 -52 61 -113 30 -60 62 -122 72 -137 11 -16 17 -32 14 -36 -3 -5 4
-19 15 -30 10 -12 20 -25 21 -29 5 -29 12 -43 20 -43 5 0 7 -4 3 -9 -3 -5 -1
-12 5 -16 6 -4 8 -11 5 -16 -4 -5 -2 -9 2 -9 10 0 49 -91 45 -103 -1 -5 1 -6
6 -3 5 3 16 -11 25 -32 9 -20 20 -44 25 -52 20 -35 72 -146 72 -155 0 -5 9
-21 20 -35 11 -14 20 -33 20 -42 0 -10 3 -18 8 -18 8 0 32 -49 32 -67 0 -7 3
-13 8 -13 4 0 18 -25 32 -55 14 -30 28 -55 32 -55 4 0 5 -6 2 -14 -3 -7 1 -20
9 -28 8 -7 20 -30 28 -51 7 -20 17 -37 21 -37 4 0 8 -5 8 -12 0 -6 8 -20 18
-31 9 -11 11 -17 5 -13 -8 4 -6 -6 5 -26 9 -18 20 -34 25 -36 4 -2 7 -12 7
-23 0 -10 5 -19 12 -19 6 0 9 -3 5 -6 -3 -3 5 -24 19 -46 14 -22 23 -42 20
-45 -2 -3 4 -14 14 -26 11 -11 17 -24 14 -29 -3 -4 0 -8 5 -8 6 0 10 -3 9 -7
-2 -8 23 -64 32 -73 3 -3 11 -16 18 -29 11 -18 11 -21 1 -15 -7 4 -4 -6 8 -22
11 -16 40 -69 64 -119 24 -49 48 -93 54 -97 5 -4 6 -8 1 -8 -4 0 -1 -11 8 -25
9 -13 16 -31 16 -40 0 -9 5 -13 10 -10 9 5 12 -8 9 -31 0 -4 3 -10 8 -13 5 -3
26 -40 46 -82 36 -74 77 -127 77 -99 0 10 3 10 15 0 8 -7 15 -9 15 -4 0 5 11
10 25 10 14 1 23 -1 20 -5 -2 -4 19 -4 46 -1 27 4 52 3 55 -2 3 -5 12 -4 20 3
11 9 14 8 14 -2 0 -9 3 -10 8 -4 8 11 65 18 58 7 -3 -4 4 -8 15 -8 10 0 19 3
19 6 0 9 67 6 76 -2 3 -4 17 -3 30 2 17 7 24 6 24 -3 0 -8 3 -8 8 -2 8 12 43
12 62 0 9 -6 11 -4 5 5 -6 10 -4 11 11 6 22 -10 26 -10 77 -2 21 3 35 1 32 -4
-3 -5 7 -5 25 0 21 6 30 5 30 -3 0 -8 3 -8 8 -2 8 11 65 18 58 7 -3 -4 4 -8
15 -8 10 0 19 3 19 6 0 3 11 6 25 6 14 1 23 -1 21 -5 -3 -4 7 -6 21 -5 28 1
48 25 30 36 -7 4 -12 11 -13 15 -1 15 -48 108 -56 111 -4 2 -8 10 -8 18 0 16
-20 56 -33 65 -4 3 -9 15 -10 27 0 12 -3 19 -6 17 -6 -6 -31 44 -31 61 0 8 -4
14 -10 14 -5 0 -10 7 -10 15 0 8 -5 15 -12 15 -6 0 -8 3 -5 6 3 4 1 16 -5 28
-7 11 -11 24 -10 28 1 5 -2 8 -6 8 -5 0 -15 18 -22 40 -7 22 -17 40 -22 40 -5
0 -6 5 -3 10 3 6 2 10 -3 10 -9 0 -25 37 -23 53 1 4 -4 7 -10 7 -5 0 -7 5 -4
10 3 6 2 10 -3 10 -9 0 -25 37 -23 53 1 4 -4 7 -9 7 -6 0 -10 7 -10 15 0 8 -4
15 -10 15 -5 0 -7 7 -4 15 4 8 2 15 -2 15 -10 0 -40 60 -36 73 1 4 -3 7 -8 7
-6 0 -10 7 -10 15 0 8 -4 15 -10 15 -5 0 -10 9 -10 20 0 11 -4 20 -10 20 -5 0
-9 3 -8 8 1 4 -5 21 -12 37 -7 17 -13 33 -12 38 1 4 -5 7 -13 7 -9 0 -12 6 -9
15 4 8 1 15 -5 15 -6 0 -10 3 -9 8 2 6 -24 63 -51 112 -25 43 -56 115 -53 123
1 5 -2 6 -8 2 -8 -5 -11 4 -10 30 1 3 -6 13 -15 21 -8 9 -13 20 -10 25 4 5 1
9 -4 9 -6 0 -11 7 -11 15 0 9 -6 18 -14 21 -8 3 -12 12 -9 20 3 8 0 14 -6 14
-6 0 -11 7 -11 16 0 8 -7 22 -15 31 -8 8 -13 19 -10 24 4 5 1 9 -4 9 -6 0 -11
9 -11 20 0 11 -4 20 -8 20 -7 0 -27 43 -29 64 -1 5 -6 12 -13 16 -6 4 -12 16
-13 28 0 12 -3 19 -6 17 -5 -6 -31 43 -31 60 0 7 -5 15 -10 17 -6 2 -12 13
-13 25 0 13 -7 25 -13 27 -7 3 -15 18 -19 35 -4 17 -14 35 -23 41 -9 5 -13 10
-9 10 5 0 -1 16 -12 36 -12 19 -18 40 -15 46 4 6 2 8 -4 4 -6 -3 -15 8 -22 29
-6 19 -16 35 -21 35 -6 0 -8 4 -4 9 3 5 -1 16 -9 24 -8 8 -12 17 -9 21 3 3 -1
14 -9 23 -8 10 -32 54 -54 98 -21 44 -43 83 -49 87 -5 4 -6 8 -2 8 9 0 -23 61
-38 72 -5 4 -6 8 -1 8 4 0 1 11 -8 25 -9 14 -14 31 -10 37 4 6 3 8 -3 5 -6 -4
-19 14 -29 38 -10 25 -21 45 -25 45 -7 0 -22 39 -20 53 1 4 -4 7 -10 7 -5 0
-7 5 -4 10 3 6 1 10 -5 10 -6 0 -9 4 -6 9 3 5 -1 14 -9 21 -8 7 -12 16 -9 21
3 5 0 9 -6 9 -6 0 -8 5 -5 10 3 6 1 10 -5 10 -6 0 -8 5 -5 10 3 6 1 10 -5 10
-6 0 -9 4 -6 9 3 5 -1 14 -9 21 -8 7 -12 16 -9 21 3 5 0 9 -5 9 -6 0 -11 9
-11 20 0 11 -4 20 -9 20 -8 0 -18 22 -26 60 -2 8 -9 16 -15 18 -5 2 -8 8 -4
13 3 5 1 9 -5 9 -5 0 -12 14 -16 30 -4 17 -11 30 -16 30 -5 0 -9 9 -9 20 0 11
-4 20 -8 20 -5 0 -15 18 -22 40 -7 22 -17 40 -22 40 -4 0 -8 7 -8 15 0 8 -5
15 -10 15 -6 0 -9 3 -8 8 1 4 -5 21 -12 37 -7 17 -13 33 -12 38 1 4 -2 7 -8 7
-5 0 -10 7 -10 15 0 8 -5 15 -11 15 -5 0 -8 4 -5 8 3 5 -4 23 -15 40 -10 18
-19 39 -19 47 0 8 -4 15 -10 15 -5 0 -13 12 -16 27 -4 15 -13 34 -21 41 -7 8
-11 18 -8 23 4 5 3 9 -2 9 -8 0 -30 42 -35 65 -1 6 -8 16 -15 23 -7 8 -11 17
-8 22 3 5 2 10 -3 12 -11 5 -192 365 -192 384 0 8 -4 12 -10 9 -5 -3 -10 -1
-10 5 0 13 -78 172 -88 180 -4 3 -9 14 -10 25 -2 11 -8 23 -14 26 -5 3 -9 9
-9 13 2 10 -31 70 -43 78 -6 4 -8 8 -4 8 4 0 -1 16 -12 35 -11 20 -20 42 -20
50 0 8 -4 15 -10 15 -5 0 -10 7 -10 15 0 8 -5 15 -12 15 -6 0 -9 3 -5 6 7 7
-59 140 -74 149 -5 4 -9 17 -9 31 0 13 -4 24 -10 24 -5 0 -10 7 -10 15 0 8 -5
15 -11 15 -5 0 -7 5 -3 11 3 6 2 14 -3 18 -5 3 -22 34 -38 69 -16 34 -33 62
-37 62 -4 0 -8 5 -8 12 0 19 -33 88 -43 88 -4 0 -5 5 -2 10 3 6 1 10 -4 10 -6
0 -10 3 -10 8 3 12 -25 72 -33 72 -4 0 -8 9 -8 20 0 11 -4 20 -10 20 -5 0 -10
7 -10 15 0 17 -51 118 -63 123 -4 2 -5 8 -1 13 3 5 0 9 -5 9 -6 0 -10 3 -10 8
3 13 -23 72 -31 72 -5 0 -11 13 -15 29 -3 16 -13 35 -21 42 -8 6 -14 20 -14
30 0 11 -4 19 -10 19 -5 0 -10 7 -10 15 0 8 -4 15 -10 15 -5 0 -7 7 -4 15 4 8
1 15 -6 15 -6 0 -8 5 -5 10 3 6 1 10 -4 10 -6 0 -11 7 -11 15 0 8 -4 15 -10
15 -5 0 -7 6 -4 14 3 7 -2 16 -11 20 -9 3 -13 11 -10 17 4 5 -1 19 -11 30 -9
10 -14 19 -10 19 4 0 0 7 -8 16 -9 8 -14 20 -11 25 4 5 1 9 -5 9 -6 0 -9 3 -7
8 3 4 -1 12 -8 19 -10 10 -14 9 -19 -3z"/>
<path d="M2939 7875 c-1 -3 -2 -8 -3 -12 -5 -25 -41 -93 -50 -93 -5 0 -7 -3
-3 -6 3 -3 -6 -26 -19 -50 -14 -24 -21 -44 -17 -44 4 0 4 -4 -2 -8 -13 -9 -48
-72 -40 -72 4 0 -1 -7 -9 -16 -9 -8 -14 -20 -11 -25 4 -5 2 -9 -2 -9 -5 0 -17
-20 -27 -45 -11 -25 -24 -45 -29 -45 -6 0 -8 -3 -5 -6 4 -3 -9 -33 -27 -67
-18 -34 -30 -68 -27 -76 2 -8 0 -11 -6 -8 -9 6 -26 -27 -23 -45 1 -5 -3 -8 -7
-8 -10 0 -37 -66 -31 -75 2 -4 -4 -11 -13 -16 -10 -6 -18 -17 -18 -24 0 -8 -4
-15 -8 -15 -4 0 -8 -10 -9 -22 -1 -11 -6 -24 -11 -27 -10 -7 -26 -43 -24 -53
1 -5 -3 -8 -8 -8 -6 0 -10 -8 -10 -17 0 -9 -7 -24 -16 -34 -8 -9 -16 -24 -18
-32 -1 -8 -7 -21 -13 -28 -11 -14 -13 -19 -13 -40 0 -5 -4 -7 -10 -4 -5 3 -10
-2 -10 -12 0 -11 -5 -24 -12 -31 -7 -7 -8 -12 -2 -12 5 0 3 -4 -4 -9 -7 -4
-14 -14 -15 -22 -2 -8 -22 -51 -45 -96 -23 -46 -39 -83 -35 -83 4 0 2 -4 -6
-9 -8 -5 -16 -17 -17 -26 -1 -9 -8 -23 -15 -32 -7 -8 -14 -22 -15 -30 -1 -7
-8 -21 -15 -30 -7 -8 -14 -22 -15 -31 -2 -8 -6 -18 -11 -21 -4 -3 -9 -13 -11
-21 -2 -8 -9 -22 -16 -30 -8 -8 -11 -21 -8 -29 3 -8 0 -11 -7 -7 -6 4 -11 1
-11 -6 0 -17 -42 -101 -55 -110 -5 -4 -7 -8 -2 -8 4 0 0 -11 -9 -25 -9 -14
-13 -25 -9 -25 5 0 0 -8 -9 -19 -9 -10 -18 -28 -19 -39 0 -12 -3 -19 -6 -16
-6 5 -61 -105 -61 -123 0 -6 -8 -17 -17 -22 -10 -6 -15 -11 -11 -11 9 0 -62
-143 -76 -152 -6 -4 -7 -8 -3 -8 9 0 -23 -61 -38 -72 -5 -4 -7 -8 -3 -8 9 0
-82 -184 -93 -188 -5 -2 -6 -9 -3 -14 4 -6 1 -16 -7 -22 -8 -6 -14 -15 -15
-21 -3 -23 -17 -55 -25 -55 -5 0 -9 -9 -9 -19 0 -11 -7 -26 -15 -35 -8 -8 -15
-21 -15 -29 0 -9 -5 -17 -11 -19 -5 -2 -11 -11 -12 -20 -2 -9 -9 -24 -17 -34
-13 -16 -13 -17 0 -10 11 6 11 4 -1 -6 -9 -7 -22 -30 -29 -50 -8 -21 -18 -38
-23 -38 -5 0 -7 -7 -3 -15 3 -9 0 -15 -10 -15 -8 0 -13 -4 -10 -9 6 -10 -16
-61 -26 -61 -5 0 -8 -6 -8 -14 0 -7 -20 -52 -45 -100 -24 -47 -41 -86 -37 -86
4 0 1 -4 -6 -9 -7 -4 -14 -16 -16 -25 -1 -10 -8 -21 -15 -25 -7 -5 -13 -11
-13 -14 0 -20 -11 -46 -18 -42 -4 3 -7 -1 -6 -8 1 -16 -84 -191 -95 -195 -5
-2 -9 -12 -9 -23 0 -10 -4 -19 -9 -19 -6 0 -8 -9 -6 -20 2 -11 0 -18 -6 -15
-8 6 -13 -8 -10 -27 0 -5 -4 -8 -9 -8 -5 0 -9 -3 -8 -7 3 -13 -35 -83 -45 -83
-5 0 -7 -7 -3 -15 3 -8 1 -15 -4 -15 -6 0 -9 -3 -9 -7 3 -13 -25 -73 -33 -73
-4 0 -8 -7 -8 -16 0 -9 -9 -29 -21 -45 -11 -16 -17 -29 -14 -29 3 0 -2 -12
-13 -27 -21 -31 -36 -64 -34 -75 1 -5 -3 -8 -9 -8 -5 0 -7 -4 -4 -10 3 -6 1
-10 -5 -10 -6 0 -8 -4 -5 -10 3 -5 1 -10 -4 -10 -6 0 -11 -6 -11 -14 0 -8 -7
-22 -16 -30 -8 -9 -13 -16 -10 -16 3 0 0 -13 -5 -30 -6 -16 -15 -30 -21 -30
-5 0 -7 -4 -3 -10 3 -5 -3 -18 -13 -28 -10 -10 -16 -24 -14 -30 2 -7 -1 -12
-8 -12 -6 0 -9 -4 -5 -9 3 -5 -2 -16 -10 -25 -9 -8 -15 -17 -15 -18 3 -11 -24
-68 -32 -68 -5 0 -7 -4 -3 -9 3 -6 -3 -14 -12 -20 -14 -8 -15 -10 -3 -11 13 0
13 -1 0 -10 -8 -5 -16 -13 -16 -17 -5 -26 -18 -53 -25 -53 -5 0 -8 -3 -7 -7 3
-10 -75 -167 -85 -171 -4 -2 -5 -8 -1 -13 3 -5 0 -9 -7 -9 -7 0 -10 -3 -6 -6
3 -4 -4 -25 -15 -48 -12 -22 -22 -45 -23 -49 0 -4 -7 -12 -15 -17 -8 -5 -12
-10 -8 -10 4 0 -10 -34 -31 -75 -22 -41 -37 -75 -34 -75 2 0 -3 -7 -11 -16 -9
-8 -14 -19 -11 -24 3 -5 2 -10 -2 -12 -5 -1 -35 -57 -68 -123 -32 -66 -62
-121 -66 -123 -5 -2 -5 -10 -2 -18 3 -8 0 -14 -7 -14 -6 0 -9 -4 -5 -9 3 -5
-1 -15 -8 -23 -8 -7 -20 -30 -26 -51 -7 -20 -17 -35 -22 -31 -5 3 -9 2 -8 -3
4 -17 -13 -63 -22 -57 -5 3 -6 -2 -3 -10 3 -9 1 -16 -6 -16 -6 0 -8 -4 -5 -10
3 -6 1 -10 -4 -10 -6 0 -11 -7 -11 -16 0 -9 -9 -29 -21 -45 -11 -16 -17 -33
-14 -39 3 -5 2 -10 -4 -10 -5 0 -15 -16 -22 -35 -7 -19 -17 -35 -21 -35 -4 0
-7 -3 -6 -8 2 -13 -43 -102 -52 -102 -6 0 -10 -7 -10 -15 0 -8 5 -15 11 -15 5
0 7 6 3 13 -4 6 2 4 13 -6 14 -12 23 -15 28 -8 4 7 12 8 24 1 10 -5 20 -7 23
-5 9 9 79 14 73 5 -3 -5 7 -5 25 0 21 6 30 5 30 -3 0 -8 3 -8 8 -2 8 11 65 18
58 7 -3 -4 4 -8 15 -8 10 0 19 3 19 6 0 9 59 10 65 1 3 -5 20 -5 39 -1 19 4
40 4 47 -1 7 -4 17 -5 21 -3 14 9 78 13 74 5 -3 -4 18 -4 45 -1 27 4 52 3 55
-2 3 -5 12 -4 20 3 11 9 14 8 14 -2 0 -9 3 -10 8 -4 8 11 65 18 58 7 -3 -4 4
-8 15 -8 10 0 19 3 19 6 0 9 67 6 76 -2 3 -4 17 -3 30 2 17 7 24 6 24 -3 0 -8
3 -8 8 -2 8 12 43 12 62 0 9 -6 11 -4 5 5 -6 10 -4 11 11 6 22 -10 26 -10 77
-2 21 3 35 1 32 -4 -3 -5 7 -5 25 0 16 5 32 5 35 0 3 -4 20 -4 39 0 19 4 40 4
47 -1 7 -4 17 -5 21 -3 14 9 78 13 74 5 -3 -4 18 -4 45 -1 27 4 52 3 55 -2 3
-5 12 -4 19 2 8 7 16 7 19 2 3 -6 20 -7 40 -2 19 4 40 4 47 -1 7 -4 17 -5 21
-3 14 9 78 13 74 5 -3 -4 18 -4 45 -1 27 4 52 3 55 -2 3 -5 11 -5 18 1 7 6 18
6 26 1 7 -4 24 -4 37 1 16 6 23 5 23 -4 0 -8 3 -8 8 -2 8 12 43 12 62 0 9 -6
11 -4 5 5 -6 10 -4 11 11 6 22 -10 26 -10 77 -2 21 3 35 1 32 -4 -3 -5 7 -5
25 0 21 6 30 5 30 -3 0 -8 3 -8 8 -2 8 11 65 18 58 7 -3 -4 4 -8 15 -8 10 0
19 3 19 6 0 9 59 10 65 1 3 -5 20 -5 39 -1 19 4 40 4 47 -1 7 -4 17 -5 21 -3
14 9 78 13 74 5 -3 -4 18 -4 45 -1 27 4 52 3 55 -2 3 -5 12 -4 20 3 11 9 14 8
14 -2 0 -9 3 -10 8 -4 8 11 65 18 58 7 -3 -4 4 -8 15 -8 10 0 19 3 19 6 0 9
67 6 76 -2 3 -4 17 -3 30 2 17 7 24 6 24 -3 0 -8 3 -8 8 -2 8 12 43 12 62 0 9
-6 11 -4 5 5 -6 10 -4 11 11 6 22 -10 26 -10 77 -2 21 3 35 1 32 -4 -3 -5 7
-5 25 0 16 5 32 5 35 0 3 -4 20 -4 39 0 19 4 40 4 47 -1 7 -4 17 -5 21 -3 14
9 78 13 74 5 -3 -4 18 -4 45 -1 27 4 52 3 55 -2 3 -5 12 -4 19 2 8 7 16 7 19
2 3 -6 20 -7 40 -2 19 4 40 4 47 -1 7 -4 17 -5 21 -3 14 9 78 13 74 5 -3 -4
18 -4 45 -1 27 4 52 3 55 -2 3 -5 11 -5 18 1 7 6 17 6 26 1 8 -5 17 -7 21 -4
17 10 69 11 69 0 0 -7 3 -7 8 -1 6 9 30 11 57 5 6 -1 14 -2 18 -1 40 7 86 8
82 1 -3 -4 4 -6 15 -3 27 7 35 22 16 29 -9 3 -16 13 -16 20 0 8 -9 24 -20 36
-11 12 -25 34 -32 49 -7 15 -16 25 -20 23 -4 -3 -8 1 -8 9 0 7 -9 23 -20 35
-11 12 -21 25 -21 29 0 12 -43 73 -51 73 -5 0 -8 9 -8 20 0 10 -8 24 -17 29
-10 6 -14 11 -10 11 4 0 -1 10 -12 22 -11 11 -18 25 -15 30 3 4 -2 8 -10 8 -9
0 -16 7 -16 15 0 9 -9 25 -20 37 -11 12 -20 27 -20 34 0 6 -7 15 -16 18 -8 3
-12 10 -9 16 3 5 1 10 -4 10 -6 0 -11 6 -11 14 0 7 -10 21 -22 30 -13 9 -16
14 -8 11 8 -4 6 1 -4 9 -11 9 -17 16 -13 16 4 0 -1 10 -13 22 -11 12 -20 26
-20 30 0 5 -5 14 -10 21 -6 7 -18 23 -29 36 -17 24 -61 37 -61 19 0 -5 -5 -6
-10 -3 -6 4 -8 12 -4 18 3 7 -2 3 -10 -7 -9 -11 -16 -16 -16 -10 0 10 -120 11
-137 1 -6 -4 -13 -4 -16 0 -11 11 -147 9 -147 -2 0 -7 -3 -7 -8 0 -9 13 -135
13 -144 0 -5 -6 -8 -7 -8 0 0 9 -212 13 -245 5 -5 -1 -12 -1 -15 0 -20 7 -371
3 -374 -5 -3 -7 -5 -7 -5 0 -1 9 -214 13 -246 5 -5 -1 -12 -1 -15 0 -16 6
-373 4 -377 -3 -2 -4 -9 -4 -15 -1 -18 11 -148 10 -148 -1 0 -7 -3 -7 -8 0 -9
13 -75 13 -84 0 -4 -5 -8 -1 -8 10 0 15 -3 16 -9 7 -5 -8 -21 -12 -42 -9 -19
2 -46 0 -62 -4 -17 -5 -25 -4 -21 2 3 6 -4 7 -19 4 -19 -5 -25 -3 -22 7 9 37
18 58 26 58 5 0 8 3 7 8 -1 4 3 17 10 28 6 12 8 24 5 28 -3 3 -1 6 5 6 10 0
28 40 23 49 -2 2 1 7 6 10 4 3 15 15 23 25 13 17 13 18 1 11 -9 -5 -5 5 7 22
12 17 22 35 22 41 0 5 10 22 22 38 13 15 17 24 9 20 -12 -8 15 42 30 54 3 3 5
13 3 23 -1 9 2 17 7 17 5 0 9 7 9 15 0 8 4 15 10 15 5 0 9 3 8 8 -2 10 84 185
96 193 4 4 5 12 2 18 -4 6 -4 11 1 11 8 0 39 62 34 69 -1 2 1 7 6 10 7 5 67
119 68 131 1 3 16 34 35 70 19 36 34 67 35 70 0 3 7 16 15 30 8 14 15 27 16
30 1 3 5 15 9 28 4 12 12 22 17 22 5 0 6 5 3 10 -3 6 -1 10 6 10 7 0 9 3 6 6
-3 4 5 26 19 50 14 24 22 44 17 44 -4 0 -3 4 3 8 16 10 55 93 48 103 -3 5 -1
9 4 9 5 0 17 18 27 40 10 22 21 37 26 35 4 -3 6 6 4 20 -1 16 3 25 12 25 8 0
12 4 8 9 -3 5 1 15 8 23 8 7 12 19 9 26 -2 6 1 12 7 12 6 0 10 3 9 8 -1 4 6
22 15 40 10 17 14 32 10 32 -5 0 -3 4 3 8 6 4 26 39 45 77 18 39 38 73 44 77
6 5 6 8 -2 8 -8 0 -5 8 7 20 18 18 25 39 21 63 0 4 3 7 9 7 12 0 41 55 33 64
-4 3 -2 6 4 6 6 0 14 10 18 23 4 12 9 24 10 27 1 3 6 15 10 28 4 12 11 22 16
22 5 0 9 9 9 20 0 11 5 20 11 20 5 0 8 4 4 9 -3 6 5 20 17 32 13 12 16 18 9
14 -9 -5 -6 4 7 22 12 17 19 33 16 36 -4 3 1 13 10 22 9 9 19 28 22 43 4 15
12 34 19 42 7 8 21 33 31 55 10 22 23 43 28 47 6 4 8 8 3 8 -4 0 -1 13 7 29 9
16 12 31 9 35 -4 3 -2 6 4 6 8 0 93 156 98 180 5 26 74 148 80 142 5 -4 5 -2
1 5 -3 6 5 32 18 56 14 24 22 47 19 51 -4 3 -1 6 6 6 7 0 9 5 6 10 -3 6 -1 10
4 10 6 0 11 7 11 15 0 8 5 15 12 15 6 0 8 3 5 7 -4 3 2 20 12 37 11 17 20 36
22 41 4 21 22 55 29 55 4 0 20 -26 36 -57 16 -32 33 -61 37 -64 5 -3 8 -9 7
-13 -2 -12 34 -86 43 -86 4 0 5 -5 1 -11 -3 -6 -3 -14 2 -18 13 -9 57 -100 57
-117 0 -7 4 -14 8 -14 8 0 49 -81 49 -98 0 -7 3 -12 8 -12 4 0 15 -21 26 -48
10 -26 24 -52 30 -57 6 -6 12 -17 14 -25 2 -8 31 -71 65 -140 34 -69 61 -128
59 -132 -1 -5 2 -8 7 -8 5 0 15 -16 22 -35 7 -19 17 -35 23 -35 5 0 6 -3 3 -6
-4 -4 3 -20 15 -37 13 -18 16 -27 7 -22 -9 5 -8 1 4 -12 9 -11 17 -25 17 -31
0 -7 5 -12 12 -12 6 0 8 -3 5 -7 -4 -3 2 -20 13 -38 11 -18 17 -35 13 -38 -3
-4 -1 -7 5 -7 7 0 12 -8 12 -19 0 -10 7 -24 15 -31 9 -7 14 -19 11 -26 -3 -7
2 -15 10 -18 9 -3 13 -10 10 -15 -3 -5 1 -12 10 -15 8 -3 12 -11 8 -17 -3 -6
-3 -14 2 -18 14 -9 34 -49 34 -65 0 -8 4 -16 8 -18 9 -4 56 -102 51 -106 -2
-2 4 -8 13 -13 10 -6 15 -18 13 -31 -3 -11 -1 -18 2 -14 6 5 30 -39 33 -62 1
-4 8 -15 17 -24 8 -9 12 -21 9 -26 -3 -6 1 -13 10 -16 8 -3 12 -10 9 -16 -3
-5 -1 -10 5 -10 6 0 8 -4 5 -10 -3 -5 -1 -10 4 -10 6 0 11 -3 10 -7 -2 -16 14
-53 22 -53 5 0 9 -8 9 -19 0 -10 7 -24 15 -31 8 -7 15 -21 15 -31 0 -9 7 -24
15 -32 8 -8 11 -17 8 -21 -4 -3 -1 -6 6 -6 7 0 9 -4 6 -10 -3 -5 -1 -10 5 -10
6 0 8 -4 5 -10 -3 -5 -1 -10 5 -10 6 0 8 -4 5 -10 -3 -5 -1 -10 5 -10 6 0 9
-4 5 -9 -3 -5 1 -15 8 -23 15 -15 31 -49 29 -60 -1 -5 3 -8 8 -8 5 0 9 -3 8
-7 -3 -11 34 -87 46 -95 6 -4 7 -8 2 -8 -4 0 -1 -11 8 -25 9 -13 16 -31 16
-40 0 -9 5 -13 10 -10 6 3 10 -3 10 -14 0 -12 5 -21 11 -21 5 0 8 -4 4 -9 -3
-5 1 -15 8 -23 7 -7 14 -17 14 -21 2 -16 57 -122 67 -129 6 -4 7 -8 3 -8 -4 0
6 -25 22 -56 17 -30 31 -62 31 -70 0 -8 3 -14 8 -14 8 0 48 -91 44 -102 -1 -5
5 -8 14 -8 10 0 14 -6 11 -14 -3 -8 3 -26 14 -40 11 -14 17 -30 14 -36 -3 -5
-1 -10 4 -10 6 0 11 -7 11 -15 0 -8 5 -15 10 -15 6 0 10 -6 10 -14 0 -7 10
-26 22 -42 13 -15 17 -24 10 -20 -15 9 -1 -20 30 -63 10 -13 15 -27 12 -32 -3
-5 0 -9 7 -9 7 0 9 -3 6 -7 -4 -3 -1 -13 7 -22 14 -16 16 -20 16 -42 0 -5 5
-7 12 -3 6 4 8 3 5 -4 -7 -10 30 -91 48 -104 6 -4 7 -8 2 -8 -4 0 0 -11 9 -25
9 -14 12 -25 8 -25 -5 0 -4 -4 1 -8 13 -9 51 -84 48 -94 -2 -4 2 -8 7 -8 6 0
10 -7 10 -15 0 -8 5 -15 12 -15 6 0 8 -3 5 -7 -4 -3 2 -20 13 -38 11 -18 17
-35 13 -38 -3 -4 -1 -7 5 -7 7 0 12 -7 12 -15 0 -8 5 -15 12 -15 6 0 8 -3 5
-7 -4 -3 -2 -12 4 -20 6 -7 8 -13 3 -13 -5 0 -4 -4 1 -8 15 -11 65 -109 65
-127 0 -8 5 -15 10 -15 6 0 10 -9 10 -20 0 -11 5 -20 11 -20 5 0 7 -4 4 -10
-3 -5 -1 -10 4 -10 6 0 11 -9 11 -20 0 -11 5 -20 10 -20 6 0 10 -6 10 -14 0
-7 7 -19 15 -26 8 -7 12 -16 10 -20 -3 -5 8 -5 23 0 16 4 35 4 43 0 7 -5 16
-7 20 -4 15 9 79 13 74 4 -3 -5 7 -5 25 0 21 6 30 5 30 -3 0 -8 3 -8 8 -2 8
11 65 18 58 7 -3 -4 4 -8 15 -8 10 0 19 3 19 6 0 9 59 10 65 1 3 -5 20 -5 39
-1 19 4 40 4 47 -1 7 -4 17 -5 21 -3 14 9 78 13 74 5 -3 -4 18 -4 45 -1 27 4
52 3 55 -2 3 -5 12 -4 20 3 11 9 14 8 14 -2 0 -9 3 -10 8 -4 8 11 65 18 58 7
-3 -4 4 -8 15 -8 10 0 19 3 19 6 0 3 11 6 25 6 14 1 22 -2 19 -8 -4 -6 1 -6
13 1 11 6 23 7 27 4 4 -4 12 -8 19 -9 23 -3 17 36 -16 99 -17 34 -32 66 -32
70 0 4 -6 11 -13 16 -8 5 -13 11 -12 15 2 12 -34 86 -43 86 -4 0 -5 5 -2 10 3
6 1 10 -4 10 -6 0 -10 3 -9 8 2 11 -54 126 -67 134 -5 4 -6 8 -1 8 5 0 3 6 -3
13 -6 8 -8 17 -4 20 3 4 1 7 -5 7 -7 0 -12 7 -12 15 0 8 -4 15 -10 15 -5 0
-10 5 -10 10 0 14 -42 104 -52 111 -5 3 -11 16 -13 29 -2 13 -10 27 -16 30 -6
4 -10 10 -10 14 2 10 -43 101 -51 104 -5 2 -6 8 -2 13 3 5 0 9 -5 9 -6 0 -11
9 -11 20 0 11 -5 20 -11 20 -5 0 -7 4 -4 10 3 6 1 10 -6 10 -7 0 -10 3 -6 6 3
4 -1 13 -9 21 -8 8 -12 19 -9 24 4 5 1 9 -4 9 -6 0 -11 7 -11 15 0 8 -5 15
-11 15 -5 0 -7 5 -4 11 4 6 -1 17 -11 25 -11 9 -12 12 -5 8 9 -5 6 4 -7 23
-12 17 -19 33 -15 37 3 3 1 6 -6 6 -7 0 -9 5 -6 10 3 6 1 10 -5 10 -6 0 -8 5
-5 10 3 6 1 10 -5 10 -6 0 -8 5 -5 10 3 6 1 10 -4 10 -6 0 -11 9 -11 20 0 11
-4 20 -10 20 -5 0 -10 9 -10 20 0 11 -4 20 -9 20 -8 0 -24 37 -22 53 1 4 -4 7
-10 7 -5 0 -7 4 -4 10 3 6 2 10 -2 10 -9 0 -37 59 -34 73 0 4 -3 7 -7 7 -5 0
-14 16 -22 35 -8 19 -18 35 -23 35 -5 0 -7 6 -4 13 2 6 -3 18 -12 25 -12 10
-12 11 -1 6 8 -5 5 4 -8 20 -12 16 -19 32 -16 37 3 5 1 9 -5 9 -6 0 -13 11
-17 25 -3 14 -11 25 -17 25 -6 0 -8 3 -5 6 4 3 -18 53 -48 111 -30 58 -54 112
-54 120 0 8 -4 11 -10 8 -9 -5 -15 15 -11 38 0 4 -4 7 -9 7 -6 0 -10 7 -10 15
0 8 -4 15 -10 15 -5 0 -10 9 -10 20 0 11 -3 20 -7 20 -10 0 -33 49 -33 67 0 8
-6 16 -14 19 -8 3 -12 12 -9 20 3 8 0 14 -6 14 -6 0 -11 7 -11 16 0 8 -7 22
-16 31 -8 9 -13 22 -10 29 3 8 1 14 -5 14 -6 0 -8 4 -5 9 3 5 -1 11 -9 15 -8
3 -15 15 -15 26 0 11 -4 20 -10 20 -5 0 -10 9 -10 20 0 11 -4 20 -10 20 -5 0
-10 9 -10 20 0 11 -5 20 -11 20 -6 0 -9 6 -6 14 3 8 -1 17 -9 20 -8 3 -14 12
-14 21 0 15 -19 55 -31 65 -10 9 -49 96 -49 109 0 7 -4 9 -10 6 -5 -3 -10 1
-10 10 0 9 -7 27 -16 40 -9 14 -12 25 -8 25 5 0 4 4 -1 8 -6 4 -31 48 -55 97
-24 50 -49 93 -55 97 -5 4 -7 8 -2 8 8 0 -43 101 -56 111 -5 3 -8 9 -7 13 3
12 -25 66 -33 66 -5 0 -6 4 -3 9 3 5 -3 20 -15 35 -11 14 -22 35 -24 46 -2 11
-13 33 -24 49 -11 15 -18 31 -14 35 3 3 1 6 -5 6 -7 0 -12 3 -11 8 2 15 -14
52 -23 52 -5 0 -6 5 -3 10 3 6 1 10 -4 10 -6 0 -11 3 -10 8 2 15 -14 52 -22
52 -5 0 -9 8 -9 17 0 9 -7 24 -15 33 -9 10 -18 28 -20 40 -3 13 -10 27 -17 32
-7 4 -9 8 -4 8 5 0 2 8 -7 18 -10 10 -14 22 -10 25 3 4 1 7 -5 7 -7 0 -11 3
-10 8 2 10 -14 46 -24 53 -5 3 -10 15 -11 27 0 11 -5 18 -9 16 -4 -3 -8 4 -8
15 0 10 -3 21 -7 23 -11 4 -69 121 -65 131 1 4 -3 7 -9 7 -5 0 -7 5 -4 10 3 6
2 10 -3 10 -6 0 -13 11 -16 25 -4 14 -11 25 -16 25 -5 0 -7 7 -4 15 4 8 2 15
-2 15 -10 0 -40 60 -36 73 1 4 -2 7 -8 7 -5 0 -10 9 -10 19 0 10 -7 21 -15 25
-8 3 -12 12 -9 21 3 8 2 15 -3 15 -5 0 -15 16 -23 35 -8 19 -17 35 -21 35 -4
0 -6 9 -4 20 2 11 0 18 -5 15 -8 -5 -19 16 -21 40 0 6 -7 14 -15 18 -8 5 -12
12 -9 18 4 5 1 9 -4 9 -6 0 -10 3 -9 8 3 10 -44 106 -56 114 -6 4 -7 8 -3 8 5
0 -1 16 -13 35 -12 19 -18 35 -13 35 4 0 0 5 -10 11 -9 6 -15 14 -12 20 4 5 1
9 -4 9 -6 0 -11 6 -11 13 0 13 -60 138 -71 147 -3 3 -12 22 -20 43 -7 20 -17
37 -23 37 -5 0 -6 3 -3 6 4 4 -3 20 -14 35 -11 16 -17 29 -12 29 4 0 3 4 -2 8
-11 7 -32 50 -33 66 0 5 -4 12 -9 15 -9 6 -36 63 -33 70 1 2 -2 7 -7 10 -4 3
-19 30 -32 59 -14 28 -28 52 -33 52 -4 0 -7 3 -7 8 1 4 0 10 -1 15 -1 4 -3 10
-4 15 -1 4 -7 17 -14 28 -6 12 -8 25 -4 29 4 5 2 6 -3 2 -6 -3 -21 18 -34 49
-13 30 -28 54 -32 54 -5 0 -8 4 -7 8 4 10 -44 105 -57 114 -5 4 -6 8 -1 8 5 0
1 9 -8 19 -10 11 -15 25 -10 32 4 7 3 10 -4 5 -6 -3 -13 6 -17 24 -4 18 -11
27 -17 24 -7 -4 -8 -2 -4 4 7 11 -7 42 -32 74 -8 9 -15 22 -17 30 -9 39 -18
57 -31 62 -8 3 -15 3 -15 1z"/>
<path d="M4123 7871 c1 -3 -8 -30 -21 -58 -12 -29 -22 -56 -21 -60 0 -3 -6
-10 -15 -15 -9 -5 -14 -13 -11 -19 4 -5 1 -9 -5 -9 -6 0 -9 -4 -5 -9 3 -5 1
-12 -5 -16 -6 -4 -8 -10 -5 -15 3 -4 -2 -11 -11 -14 -8 -3 -12 -10 -9 -16 3
-5 1 -10 -4 -10 -6 0 -11 -3 -10 -7 2 -16 -14 -53 -22 -53 -5 0 -9 -9 -9 -20
0 -11 -4 -20 -8 -20 -4 0 -14 -17 -21 -37 -8 -21 -23 -51 -34 -67 -14 -19 -16
-27 -6 -22 7 4 5 0 -5 -8 -11 -9 -16 -16 -11 -16 4 0 1 -8 -8 -17 -8 -10 -16
-22 -16 -26 0 -14 -114 -242 -125 -249 -6 -4 -7 -8 -3 -8 4 0 2 -10 -5 -22 -7
-13 -11 -26 -10 -30 1 -5 -3 -8 -8 -8 -15 0 -12 -44 5 -66 8 -10 15 -27 15
-37 0 -10 5 -15 10 -12 6 3 10 0 10 -7 0 -19 23 -68 32 -68 4 0 5 -9 3 -20 -2
-11 0 -18 5 -15 8 5 26 -32 22 -47 -1 -5 2 -8 7 -8 5 0 12 -11 15 -25 4 -14
11 -25 16 -25 5 0 7 -7 4 -15 -4 -8 -1 -15 6 -15 7 0 10 -6 7 -14 -3 -8 0 -17
8 -19 7 -3 18 -23 25 -44 7 -21 19 -44 28 -50 9 -7 13 -13 9 -13 -4 0 -2 -10
5 -22 7 -13 11 -26 10 -30 -1 -5 2 -8 7 -8 7 0 20 -26 25 -52 0 -4 7 -13 14
-19 6 -7 12 -21 12 -30 0 -10 5 -19 11 -21 5 -2 11 -11 12 -20 2 -9 9 -23 16
-32 8 -9 11 -19 8 -22 -5 -6 0 -14 29 -47 6 -7 9 -18 6 -25 -2 -6 1 -12 8 -12
6 0 9 -4 6 -9 -3 -5 1 -14 10 -21 8 -7 13 -19 10 -27 -3 -7 -2 -13 2 -13 4 0
16 -17 27 -37 11 -21 24 -41 30 -45 5 -4 7 -8 3 -8 -5 0 8 -30 27 -67 19 -37
35 -73 35 -80 0 -7 5 -13 11 -13 6 0 9 -7 5 -15 -3 -8 -2 -15 3 -15 4 0 16
-19 27 -42 10 -24 21 -45 24 -48 9 -8 35 -74 32 -82 -1 -5 4 -8 11 -8 7 0 13
-10 14 -22 1 -11 8 -25 15 -29 7 -5 10 -9 5 -9 -4 0 -1 -10 8 -23 8 -13 12
-27 8 -30 -3 -4 1 -7 10 -7 10 0 14 -5 11 -15 -4 -8 -1 -15 5 -15 6 0 11 -5
11 -11 0 -6 11 -33 25 -60 13 -27 21 -49 17 -49 -4 0 -2 -4 3 -8 13 -9 155
-294 155 -311 0 -7 5 -9 10 -6 6 3 10 0 10 -6 0 -7 21 -56 47 -109 26 -52 46
-98 45 -102 -1 -5 3 -8 9 -8 5 0 7 -4 4 -10 -3 -5 -1 -10 5 -10 6 0 8 -4 5
-10 -3 -5 -2 -10 2 -10 9 0 37 -59 34 -72 0 -5 4 -8 10 -8 6 0 9 -6 6 -14 -3
-8 1 -17 9 -20 8 -3 14 -15 14 -26 0 -11 5 -20 11 -20 5 0 7 -4 4 -10 -3 -5
-2 -10 3 -10 5 0 15 -18 22 -40 7 -22 16 -40 19 -40 3 0 17 -27 31 -60 14 -33
28 -60 33 -60 4 0 7 -9 7 -19 0 -11 5 -21 11 -23 5 -2 11 -10 13 -18 1 -8 8
-26 16 -40 8 -14 13 -28 12 -32 -1 -5 3 -8 9 -8 5 0 7 -4 4 -10 -3 -5 -1 -10
4 -10 6 0 10 -3 10 -7 -3 -15 23 -73 32 -73 5 0 9 -9 9 -19 0 -11 5 -21 10
-23 6 -2 12 -14 15 -27 2 -13 12 -30 22 -38 10 -8 12 -12 6 -8 -9 4 -11 1 -7
-9 3 -9 11 -16 16 -16 6 0 8 -7 4 -15 -3 -8 -2 -15 2 -15 5 0 14 -16 22 -35 8
-19 18 -35 22 -35 5 0 7 -4 3 -9 -3 -5 2 -16 11 -25 8 -9 12 -21 8 -27 -4 -8
-3 -9 4 -5 8 5 12 0 12 -13 0 -12 5 -21 12 -21 6 0 9 -3 5 -6 -3 -3 3 -23 14
-42 10 -20 19 -43 19 -50 0 -7 4 -11 9 -7 5 3 13 -5 16 -17 13 -43 50 -118 58
-118 5 0 5 -4 2 -10 -3 -5 -1 -10 4 -10 6 0 10 -3 9 -7 -4 -13 35 -93 45 -93
4 0 6 -4 2 -9 -3 -5 1 -16 9 -24 8 -8 12 -17 9 -21 -4 -3 -1 -6 5 -6 7 0 11
-3 10 -7 -4 -15 13 -53 23 -53 6 0 7 -5 3 -11 -3 -6 -2 -14 3 -18 5 -3 27 -42
47 -86 21 -44 43 -83 49 -87 7 -4 8 -8 3 -8 -4 0 -1 -11 8 -25 9 -14 14 -25
11 -25 -2 0 8 -21 23 -47 16 -27 34 -64 42 -83 8 -19 16 -37 20 -40 9 -8 34
-64 32 -72 -1 -5 3 -8 8 -8 6 0 10 -10 10 -22 0 -12 3 -18 7 -15 6 6 29 -44
37 -83 2 -8 9 -14 15 -12 7 1 11 -3 10 -10 -3 -18 57 -139 65 -131 3 3 6 -6 6
-20 0 -15 5 -27 11 -27 5 0 7 -5 4 -10 -3 -5 -1 -10 5 -10 7 0 10 -6 7 -14 -3
-8 1 -17 9 -20 8 -3 13 -9 12 -13 -1 -4 3 -18 10 -30 7 -13 9 -23 5 -23 -4 0
-1 -5 7 -10 8 -5 15 -13 16 -17 2 -25 110 -223 119 -219 7 2 18 1 25 -4 7 -4
26 -4 41 0 17 5 31 5 35 -1 4 -6 11 -6 20 2 11 9 14 8 14 -2 0 -9 3 -10 8 -4
8 11 65 18 58 7 -3 -4 4 -8 15 -8 10 0 19 3 19 6 0 3 14 6 30 7 18 1 30 -3 30
-10 0 -7 3 -8 8 -2 8 11 65 18 58 7 -3 -4 4 -8 15 -8 10 0 19 3 19 6 0 9 59
10 65 1 3 -5 20 -5 39 -1 19 4 40 4 47 -1 7 -4 17 -5 21 -3 14 9 78 13 74 5
-3 -4 18 -4 45 -1 27 4 52 3 55 -2 3 -5 12 -4 20 3 11 9 14 8 14 -2 0 -9 3
-10 8 -4 8 11 65 18 58 7 -3 -4 4 -8 15 -8 10 0 19 4 19 9 0 4 5 5 10 2 19
-12 30 5 18 30 -6 13 -14 22 -18 20 -4 -2 -7 2 -8 10 -1 8 -3 22 -4 30 -1 8
-5 15 -10 15 -4 0 -8 5 -8 11 0 6 -10 25 -22 42 -12 17 -16 27 -9 23 10 -6 10
-3 -1 15 -7 13 -19 28 -26 32 -7 5 -10 12 -7 18 4 5 1 9 -5 9 -6 0 -9 4 -6 9
3 5 -1 14 -9 21 -8 7 -12 16 -9 21 3 5 0 9 -6 9 -6 0 -8 5 -5 10 3 6 1 10 -5
10 -6 0 -8 5 -5 10 3 6 1 10 -4 10 -6 0 -11 3 -10 8 2 15 -14 52 -23 52 -5 0
-6 5 -3 10 3 6 1 10 -5 10 -6 0 -9 4 -6 9 4 5 2 11 -3 13 -5 1 -11 12 -13 23
-1 11 -11 29 -20 39 -16 18 -20 30 -17 52 0 4 -5 10 -13 15 -7 5 -13 12 -13
16 -1 4 -9 24 -20 43 -11 19 -20 37 -20 40 -1 3 -8 19 -15 35 -7 17 -12 34
-11 38 1 5 -2 6 -7 3 -8 -4 -43 62 -43 81 0 5 -8 16 -16 26 -9 9 -12 17 -7 17
5 0 5 4 -1 8 -16 12 -45 69 -38 76 3 3 1 6 -5 6 -7 0 -12 7 -12 16 0 8 -7 22
-15 30 -8 9 -15 24 -15 34 0 10 -7 20 -15 24 -8 3 -15 15 -15 26 0 11 -5 20
-11 20 -5 0 -7 5 -3 11 3 6 0 15 -7 20 -8 4 -14 12 -14 16 -1 4 -6 18 -13 31
-7 12 -10 22 -6 22 4 0 0 8 -8 18 -14 16 -31 53 -28 61 1 2 -2 7 -7 10 -4 3
-15 15 -23 25 -13 18 -13 19 0 12 8 -4 6 0 -4 8 -11 9 -16 16 -12 16 4 0 -2
16 -14 35 -12 19 -18 35 -13 35 4 0 1 5 -7 10 -8 5 -15 13 -15 17 -1 4 -15 36
-33 71 -18 34 -29 62 -25 62 5 0 0 5 -10 11 -9 6 -15 14 -12 20 4 5 1 9 -4 9
-6 0 -10 3 -9 8 1 4 -10 30 -25 58 -14 28 -23 54 -20 58 4 3 1 6 -5 6 -6 0
-16 16 -23 35 -7 19 -17 35 -22 35 -4 0 -6 4 -2 9 3 5 -2 16 -10 25 -9 8 -15
18 -15 21 0 3 -11 28 -25 55 -14 27 -26 53 -26 57 0 5 -5 14 -11 20 -13 16
-79 151 -77 159 0 4 -3 10 -8 13 -9 6 -36 63 -33 70 1 2 -2 7 -7 10 -9 6 -36
63 -33 70 1 2 -2 7 -7 10 -5 3 -20 30 -33 59 -13 28 -27 52 -32 52 -4 0 -7 3
-6 8 4 11 -26 72 -35 72 -5 0 -5 5 -2 10 3 6 1 10 -5 10 -6 0 -8 5 -5 10 3 6
1 10 -4 10 -6 0 -11 3 -10 8 2 15 -14 52 -23 52 -5 0 -6 5 -3 10 3 6 1 10 -4
10 -6 0 -10 3 -10 8 3 13 -25 72 -34 72 -4 0 -5 4 -2 10 3 6 1 10 -4 10 -6 0
-10 3 -9 8 3 11 -36 92 -44 92 -5 0 -8 9 -8 20 0 11 -5 20 -10 20 -6 0 -9 3
-8 8 1 4 -4 18 -12 32 -7 14 -14 27 -14 30 -1 3 -4 4 -9 2 -4 -1 -6 1 -6 5 1
5 0 11 -1 16 -1 4 -3 10 -4 15 -1 4 -7 17 -14 30 -7 12 -10 22 -6 22 4 0 -3 9
-16 20 -13 11 -20 20 -15 20 4 0 0 11 -9 25 -9 13 -16 31 -16 40 0 8 -4 15
-10 15 -5 0 -10 9 -10 20 0 11 -4 20 -9 20 -5 0 -15 17 -22 38 -6 20 -15 39
-18 42 -12 10 -31 50 -31 65 0 8 -4 15 -9 15 -9 0 -24 38 -22 53 1 4 -6 10
-14 13 -8 3 -13 10 -10 14 3 5 1 11 -5 15 -5 3 -10 15 -10 26 0 10 -5 19 -11
19 -5 0 -7 5 -4 10 3 6 2 10 -3 10 -5 0 -15 18 -22 40 -7 22 -16 40 -19 40 -3
0 -12 15 -19 33 -7 17 -17 39 -22 47 -28 46 -58 110 -52 110 4 0 2 4 -5 8 -6
4 -13 14 -15 22 -2 8 -9 21 -16 28 -7 8 -10 18 -7 23 4 5 1 9 -4 9 -6 0 -11 6
-11 14 0 7 -7 19 -15 26 -9 7 -13 15 -11 17 3 3 -7 25 -20 49 -14 24 -22 44
-19 44 4 0 -1 7 -9 16 -9 8 -14 20 -11 25 4 5 1 9 -4 9 -6 0 -11 7 -11 15 0 8
-4 15 -8 15 -4 0 -8 9 -9 20 -1 11 -11 32 -22 46 -12 15 -21 33 -21 40 0 8 -4
14 -9 14 -9 0 -26 48 -23 63 1 4 -5 7 -14 7 -10 0 -14 6 -11 15 4 8 2 17 -4
21 -12 7 -45 85 -41 97 1 5 -2 6 -8 2 -5 -3 -10 1 -10 10 0 8 -11 33 -25 55
-14 22 -22 40 -19 40 4 0 1 7 -6 15 -17 21 -50 87 -50 102 0 7 -5 13 -11 13
-6 0 -9 7 -5 15 3 10 -1 15 -11 15 -9 0 -14 3 -11 6 4 3 0 17 -7 31 -8 15 -11
31 -8 36 3 6 1 7 -5 3 -7 -4 -12 -1 -12 8 0 9 -5 16 -12 16 -6 0 -9 3 -5 6 6
6 -72 164 -86 175 -5 3 -8 10 -8 15 2 12 -61 137 -72 145 -5 3 -8 10 -8 15 2
12 -82 178 -91 182 -5 2 -6 8 -2 13 3 5 0 9 -6 9 -6 0 -9 4 -6 9 3 5 -1 14 -9
21 -8 7 -12 16 -9 21 3 5 0 9 -5 9 -6 0 -10 3 -9 8 2 10 -45 106 -54 110 -5 2
-8 12 -8 23 0 10 -5 19 -11 19 -5 0 -7 5 -4 10 3 6 1 10 -4 10 -6 0 -11 3 -10
8 2 15 -14 52 -23 52 -5 0 -7 4 -4 9 3 5 -3 11 -14 14 -11 3 -18 2 -17 -2z"/>
</g>
</svg>
