<svg xmlns:dc="http://purl.org/dc/elements/1.1/" xmlns:cc="http://creativecommons.org/ns#" xmlns:rdf="http://www.w3.org/1999/02/22-rdf-syntax-ns#" xmlns:svg="http://www.w3.org/2000/svg" xmlns="http://www.w3.org/2000/svg" xmlns:sodipodi="http://sodipodi.sourceforge.net/DTD/sodipodi-0.dtd" xmlns:inkscape="http://www.inkscape.org/namespaces/inkscape" version="1.1" x="0px" y="0px" viewBox="0 0 100 125"><g transform="translate(0,-952.36218)"><path style="text-indent:0;text-transform:none;direction:ltr;block-progression:tb;baseline-shift:baseline;color:#000000;enable-background:accumulate;" d="m 9.9999999,973.36218 c -2.1641,0 -4,1.8359 -4,4 l 0,50.00002 c 0,2.1641 1.8359,4 4,4 l 80.0000001,0 c 2.1641,0 4,-1.8359 4,-4 l 0,-50.00002 c 0,-2.1641 -1.8359,-4 -4,-4 l -80.0000001,0 z m 2.0000001,6 76,0 0,1.4688 -38,27.78122 -38,-27.78122 0,-1.4688 z m 0,8.9062 36.21875,26.50002 a 3.0003,3.0003 0 0 0 3.5625,0 L 88,988.26838 l 0,37.09382 -76,0 0,-37.09382 z" fill="#ffffff" fill-opacity="1" stroke="none" marker="none" visibility="visible" display="inline" overflow="visible"/></g></svg>